# xmcd CD database file
# Copyright (C) 1993-1998 Ti Kan
#
# Track frame offsets:
# 150
# 14625
# 30465
# 49522
# 69225
# 84607
# 100622
# 115275
# 126582
# 141380
# 153467
# 168567
# 187052
# 202607
# 216585
# 227232
# 243870
#
# Disc length: 3498 seconds
#
# Revision: 0
# Processed by: cddbd v1.4b41PL1 Copyright (c) Steve Scherf et al.
# Submitted via: inCDius 1.1b8
#
DISCID=f00da811
DTITLE=Various Artist - This Country Folk (Volume 1)
DYEAR=1900
DGENRE=
TTITLE0=Debby Richard - One for the Road
TTITLE1=Jon Wasson - Worth the Wait
TTITLE2=Alex Mason and the Silverfish - Dream On
TTITLE3=Alex Mason and the Silverfish - Thinking
TTITLE4=Alex Mason and the Silverfish - Night After Night
TTITLE5=Michael Lees - Queen of the Bingo Hall
TTITLE6=Gordie Duggan - 20 Years Old
TTITLE7=Kevin Ryan - The Way
TTITLE8=Michael Lees - Small Town Girl
TTITLE9=Michael Lees Band - No Kiss GoodnightQueen of the Bingo Hall
TTITLE10=Jon Wasson - Coal Miner's Son
TTITLE11=Kevin Ryan - Forgotten Islander
TTITLE12=Gordie Duggan - Tired Old Town
TTITLE13=A.J. Stanley - Don't Hear a Word I Say
TTITLE14=Lesley Choyce and Surf Poets - First World War
TTITLE15=Ron Doug Parks - Jimmy Cahoon
TTITLE16=Duke Barron - My Time on Earth
EXTD=
EXTT0=
EXTT1=
EXTT2=
EXTT3=
EXTT4=
EXTT5=
EXTT6=
EXTT7=
EXTT8=
EXTT9=
EXTT10=
EXTT11=
EXTT12=
EXTT13=
EXTT14=
EXTT15=
EXTT16=
PLAYORDER=
